<mxfile host="app.diagrams.net" modified="2023-11-08T18:51:57.726Z" agent="Mozilla/5.0 (Windows NT 10.0; Win64; x64) AppleWebKit/537.36 (KHTML, like Gecko) Chrome/119.0.0.0 Safari/537.36 Edg/119.0.0.0" version="22.0.8" etag="lo3vgUooJPepZZGuDKES" type="github">
  <diagram name="Страница — 1" id="Krh8FKygKV9rGIVY2KkC">
    <mxGraphModel>
      <root>
        <mxCell id="0" />
        <mxCell id="1" parent="0" />
      </root>
    </mxGraphModel>
  </diagram>
</mxfile>
